<?xml version="1.0" standalone="no"?>
<!DOCTYPE svg PUBLIC "-//W3C//DTD SVG 20010904//EN"
 "http://www.w3.org/TR/2001/REC-SVG-20010904/DTD/svg10.dtd">
<svg version="1.0" xmlns="http://www.w3.org/2000/svg"
 width="2000.000000pt" height="1219.000000pt" viewBox="0 0 2000.000000 1219.000000"
 preserveAspectRatio="xMidYMid meet">

<g transform="translate(0.000000,1219.000000) scale(0.100000,-0.100000)"
fill="#000000" stroke="none">
<path d="M10281 10725 c-46 -52 -36 -94 26 -116 29 -9 55 -4 125 26 12 5 25
-1 40 -17 13 -14 36 -33 51 -43 l29 -18 65 65 c41 41 63 70 58 78 -10 17 -92
50 -123 50 -14 0 -45 -10 -69 -21 -38 -19 -46 -19 -61 -7 -23 19 -69 38 -91
38 -11 0 -33 -16 -50 -35z m107 -3 c2 -8 -11 -12 -42 -12 -47 0 -59 12 -30 28
20 11 66 1 72 -16z"/>
<path d="M11195 10746 c-42 -18 -109 -96 -123 -142 -10 -34 -9 -44 12 -89 28
-60 78 -112 119 -121 16 -3 57 -3 91 0 l61 7 28 -44 c48 -78 47 -80 -115 -147
-91 -37 -118 -57 -158 -115 -48 -70 -54 -92 -27 -110 35 -22 309 -75 392 -75
87 0 92 5 130 113 l28 77 -22 73 c-34 116 -35 114 76 188 109 72 199 150 208
180 14 44 -57 99 -129 99 -52 0 -96 -21 -134 -64 -36 -41 -36 -41 -21 -101 9
-36 8 -47 -6 -69 -27 -40 -48 -33 -76 26 -57 122 -158 255 -228 300 -50 31
-63 33 -106 14z m263 -589 c3 -23 0 -27 -20 -27 -37 0 -51 20 -31 42 23 26 47
19 51 -15z"/>
<path d="M8076 10718 c-36 -59 -24 -128 30 -179 20 -19 24 -32 24 -81 0 -73
-13 -80 -72 -40 -89 60 -243 146 -322 178 -78 32 -156 44 -182 26 -49 -32 -42
-174 12 -233 10 -12 55 -38 99 -60 44 -22 87 -44 95 -50 13 -9 29 -3 79 30 71
45 68 46 154 -16 26 -19 47 -40 47 -47 0 -6 -14 -20 -32 -30 -46 -28 -107 -85
-124 -117 -18 -36 -18 -112 1 -148 25 -49 55 -54 227 -41 84 6 168 14 187 16
47 7 81 47 81 96 0 53 -26 100 -104 187 -36 40 -66 77 -66 81 0 24 56 196 86
264 29 65 33 82 22 92 -12 11 -206 94 -221 94 -4 0 -13 -10 -21 -22z m58 -534
c27 -10 20 -44 -9 -44 -18 0 -25 5 -25 18 0 29 9 36 34 26z"/>
<path d="M8626 10676 c-19 -29 -44 -74 -54 -100 l-18 -48 54 -166 c100 -308
117 -355 135 -366 76 -47 74 178 -4 539 -30 138 -49 195 -64 195 -7 0 -29 -24
-49 -54z"/>
<path d="M9329 10567 c-122 -82 -196 -337 -134 -458 21 -40 54 -59 103 -59 78
0 133 46 153 127 13 48 29 57 29 16 0 -68 -67 -162 -158 -225 -87 -60 -274
-118 -380 -118 -73 0 -64 -18 24 -49 57 -21 88 -25 184 -25 109 -1 118 1 182
31 78 37 150 105 190 180 30 55 58 169 58 237 0 71 -29 218 -55 273 -40 89
-124 119 -196 70z m70 -229 c4 -12 6 -30 3 -40 -5 -19 -36 -33 -52 -23 -11 7
-14 68 -3 78 14 15 44 6 52 -15z"/>
<path d="M10772 10548 c-37 -40 -64 -118 -70 -200 -2 -44 -9 -78 -16 -81 -15
-4 -284 10 -411 22 -92 9 -102 12 -126 39 -21 24 -29 47 -39 116 -7 54 -16 86
-23 83 -22 -7 -77 -101 -97 -164 -51 -165 -2 -302 113 -317 60 -8 404 -26 519
-28 79 -1 103 3 130 19 52 30 78 77 78 141 0 43 7 66 31 109 27 47 30 60 24
101 -8 56 -63 182 -80 182 -6 0 -21 -10 -33 -22z"/>
<path d="M12889 10400 c-20 -11 -48 -33 -62 -50 -65 -76 -318 -576 -320 -631
-2 -31 2 -35 63 -66 40 -21 98 -40 150 -49 48 -8 109 -27 140 -43 30 -16 159
-63 285 -106 211 -70 233 -79 265 -114 45 -50 73 -63 130 -64 83 -1 142 51
155 138 5 34 1 49 -30 99 -42 69 -47 53 75 206 l78 97 61 6 c34 4 75 14 92 23
29 14 30 18 24 57 -10 55 -42 141 -63 167 l-17 21 -56 -20 c-108 -41 -155 -90
-145 -152 6 -39 3 -45 -101 -184 -60 -79 -114 -146 -120 -149 -16 -7 -176 57
-181 73 -2 6 24 41 58 79 34 37 72 86 83 108 l20 42 -22 31 c-26 35 -78 65
-133 75 -65 12 -294 -79 -375 -149 -23 -19 -48 -35 -57 -35 -34 0 -146 59
-148 77 -4 55 24 121 129 303 71 122 95 176 91 202 -4 30 -24 32 -69 8z m349
-576 c12 -14 22 -32 22 -41 0 -22 -48 -83 -65 -83 -8 0 -48 17 -90 37 -82 41
-93 61 -50 89 61 40 146 39 183 -2z"/>
<path d="M8430 10373 c0 -17 146 -432 154 -441 27 -27 -38 213 -100 367 -34
86 -54 113 -54 74z"/>
<path d="M6297 10323 c-22 -25 -31 -68 -18 -91 11 -21 90 -62 119 -62 26 0 65
44 65 74 0 39 -29 74 -70 85 -54 15 -78 14 -96 -6z m93 -18 c17 -20 4 -35 -30
-35 -32 0 -45 13 -36 35 7 19 50 19 66 0z"/>
<path d="M12279 10286 c-145 -38 -319 -239 -323 -372 -1 -54 24 -83 80 -91 69
-9 123 13 182 73 29 30 55 54 57 54 16 0 -1 -39 -35 -80 -86 -103 -303 -170
-553 -170 -126 0 -141 -8 -90 -43 79 -54 209 -97 295 -97 68 0 188 41 265 91
159 104 318 374 300 509 -6 47 -35 108 -56 119 -32 16 -77 19 -122 7z m-21
-209 c13 -15 6 -27 -30 -50 -34 -21 -44 -21 -52 -1 -7 17 35 64 57 64 8 0 19
-6 25 -13z"/>
<path d="M6144 10275 c-33 -23 -38 -60 -14 -109 17 -37 64 -78 73 -65 2 2 15
19 30 37 33 41 36 93 7 122 -11 11 -26 20 -34 20 -8 0 -20 2 -28 5 -7 3 -23
-1 -34 -10z"/>
<path d="M13246 10259 c-31 -37 -33 -77 -6 -112 19 -24 26 -26 93 -24 76 1 98
-7 157 -55 19 -15 42 -28 52 -28 23 0 88 58 88 79 0 46 -80 100 -148 101 -37
0 -63 12 -105 46 -43 36 -98 33 -131 -7z"/>
<path d="M7391 10223 c-14 -51 -13 -80 5 -128 29 -75 29 -73 -13 -84 -65 -18
-72 -15 -100 45 -14 30 -27 73 -30 95 -4 29 -10 39 -21 37 -27 -5 -63 -90 -70
-164 -6 -64 -9 -69 -35 -78 -54 -19 -96 37 -105 140 -2 35 -9 67 -14 70 -16
10 -55 -35 -78 -89 -22 -50 -24 -115 -6 -158 6 -13 -8 -22 -70 -43 -120 -43
-136 -44 -166 -7 -14 16 -33 50 -42 73 -9 24 -26 72 -39 107 -13 36 -28 66
-34 68 -6 2 -22 -11 -34 -29 -20 -28 -24 -45 -24 -108 0 -64 5 -84 32 -138 21
-42 28 -64 20 -67 -7 -2 -41 -9 -77 -15 -35 -7 -93 -23 -128 -36 -44 -16 -69
-21 -80 -15 -35 19 -98 98 -158 197 -9 15 -15 16 -24 7 -9 -8 -11 -38 -8 -100
4 -70 10 -99 31 -140 15 -29 23 -54 19 -56 -4 -2 -45 -17 -92 -32 -47 -15
-116 -41 -153 -58 l-68 -30 -98 67 c-94 64 -142 86 -188 86 -30 0 -91 -55
-109 -99 -20 -49 -20 -156 0 -205 19 -44 16 -52 -22 -61 -16 -3 -50 -21 -76
-40 l-49 -34 -32 27 c-18 15 -113 97 -211 183 -201 175 -264 223 -276 211 -4
-4 -11 -28 -14 -53 l-6 -45 138 -129 c77 -72 198 -188 270 -258 133 -129 189
-177 209 -177 18 0 158 70 194 97 l33 26 -6 75 c-8 84 -17 80 84 43 42 -16 68
-19 110 -15 66 8 160 44 199 77 16 13 59 32 96 41 146 37 211 92 202 171 -2
24 -2 46 0 49 3 2 28 -8 56 -22 90 -47 229 -27 305 45 33 32 34 34 27 89 -6
52 -5 55 12 46 10 -6 27 -20 38 -32 59 -66 128 -67 250 -3 111 57 166 71 322
82 99 7 133 14 180 36 69 31 101 59 119 102 24 55 17 84 -38 169 -29 45 -68
113 -87 153 -19 39 -41 71 -47 71 -7 0 -18 -17 -23 -37z m-1745 -778 c9 -24
-15 -45 -51 -45 -40 0 -63 23 -45 45 17 20 89 20 96 0z"/>
<path d="M5645 10198 c-79 -43 -48 -148 45 -148 63 0 107 22 115 58 3 17 1 40
-5 51 -23 43 -108 65 -155 39z"/>
<path d="M5892 10083 c-19 -9 -36 -23 -39 -30 -9 -24 -60 -43 -113 -43 -59 0
-90 -24 -90 -68 0 -39 30 -63 83 -69 55 -7 85 9 103 53 18 43 43 44 94 4 21
-17 52 -31 71 -32 l34 -3 3 65 c4 87 -2 105 -42 124 -43 20 -62 20 -104 -1z"/>
<path d="M6265 10000 c-9 -15 4 -52 28 -77 22 -24 42 -29 52 -13 10 16 -14 87
-31 94 -23 9 -42 7 -49 -4z"/>
<path d="M7998 9789 c-10 -6 -18 -21 -18 -34 0 -19 6 -24 32 -27 22 -2 34 -9
36 -21 5 -25 -25 -32 -64 -14 -32 16 -34 15 -44 -3 -14 -27 -3 -48 31 -55 16
-4 34 -15 39 -26 15 -28 28 -23 38 13 10 38 35 47 62 23 15 -13 23 -14 39 -5
23 12 27 25 10 36 -6 3 -9 15 -6 25 3 13 -1 19 -17 21 -15 2 -21 10 -21 27 0
25 -3 26 -75 44 -14 3 -33 1 -42 -4z"/>
<path d="M14259 9751 c-56 -37 -120 -104 -251 -266 -140 -173 -228 -294 -228
-311 0 -53 100 26 351 276 229 228 274 285 249 316 -20 23 -72 17 -121 -15z"/>
<path d="M14562 9290 c-160 -42 -363 -178 -347 -232 13 -41 35 -67 75 -88 52
-26 88 -25 156 5 64 28 64 28 64 15 0 -15 -79 -56 -155 -82 -62 -20 -88 -23
-220 -22 -170 1 -248 17 -379 78 -42 19 -76 30 -76 25 0 -19 108 -156 149
-188 66 -53 127 -71 235 -71 189 0 329 51 486 179 157 126 260 258 260 332 0
68 -100 87 -248 49z m4 -151 c14 -16 16 -24 7 -37 -19 -30 -113 -14 -113 19 0
11 50 38 71 39 9 0 24 -9 35 -21z"/>
<path d="M15463 9220 c-29 -12 -43 -41 -43 -88 0 -55 19 -67 95 -65 l63 2 6
-38 c7 -47 28 -66 87 -82 63 -17 97 -6 115 37 17 40 8 64 -32 90 -20 13 -38
15 -96 10 l-71 -7 8 23 c18 58 17 73 -8 96 -28 26 -89 37 -124 22z"/>
<path d="M4660 9116 c0 -25 58 -147 81 -172 20 -21 27 -22 132 -17 l112 6 28
-28 c35 -35 41 -61 34 -140 -3 -44 -13 -78 -31 -109 -30 -51 -103 -119 -159
-148 -22 -11 -37 -21 -34 -24 7 -7 247 14 288 26 97 27 149 101 149 210 0 54
-6 78 -30 127 -38 77 -118 156 -195 193 -80 39 -224 80 -307 87 -59 5 -68 4
-68 -11z"/>
<path d="M14030 9100 c0 -5 4 -10 9 -10 6 0 13 5 16 10 3 6 -1 10 -9 10 -9 0
-16 -4 -16 -10z"/>
<path d="M9795 8952 c-307 -155 -1174 -562 -2324 -1092 -349 -160 -644 -296
-655 -300 -12 -4 -70 -32 -131 -60 -60 -29 -173 -81 -250 -117 -230 -105 -255
-118 -255 -125 0 -5 173 -8 385 -8 l385 0 0 -529 c0 -315 4 -561 11 -608 41
-311 233 -624 531 -866 557 -451 1427 -716 2353 -717 863 0 1611 179 2157 517
387 239 642 517 763 832 66 170 67 180 75 794 4 341 11 562 17 568 6 6 158 10
402 9 361 0 434 5 357 24 -13 3 -73 29 -133 57 -59 28 -144 68 -188 89 -44 21
-147 70 -230 110 -82 39 -283 134 -445 210 -376 176 -931 437 -1290 608 -58
27 -143 68 -190 90 -47 22 -186 88 -310 147 -124 59 -265 127 -315 150 -49 23
-200 97 -335 164 -134 66 -247 121 -250 120 -3 0 -63 -30 -135 -67z m69 -692
l1 -195 -352 -3 c-392 -3 -375 -6 -325 64 72 98 191 189 323 246 93 40 273 88
318 85 l33 -2 2 -195z m276 179 c182 -42 328 -113 434 -210 57 -52 126 -138
126 -158 0 -8 -99 -11 -350 -11 l-350 0 0 200 0 200 26 0 c15 0 66 -9 114 -21z
m260 -458 l325 -1 0 -188 0 -187 -362 -3 -363 -2 0 188 c0 104 3 192 6 195 4
4 21 5 38 2 17 -2 177 -4 356 -4z m-539 -5 c2 -2 3 -88 1 -190 l-3 -186 -369
0 -370 0 0 183 c0 101 3 187 7 190 7 7 727 10 734 3z m109 -892 c5 -110 5
-111 44 -161 44 -58 55 -63 143 -63 142 0 286 -46 528 -168 149 -75 215 -96
335 -107 87 -8 238 14 306 45 41 18 43 20 37 55 -7 46 10 80 52 100 63 29 148
11 180 -39 21 -32 14 -64 -21 -99 -20 -20 -25 -33 -20 -51 5 -21 199 -467 268
-616 28 -60 124 -288 155 -370 14 -36 30 -69 35 -75 5 -6 46 -9 97 -7 55 3 91
0 95 -7 4 -5 -22 -46 -56 -91 l-63 -80 -624 2 -623 3 -44 75 c-23 41 -43 81
-43 88 -1 9 22 12 84 12 49 0 85 4 85 10 0 8 96 241 135 325 7 17 52 120 100
230 47 110 109 248 137 308 28 59 49 109 47 111 -2 2 -38 -7 -79 -20 -113 -37
-250 -50 -373 -36 -113 13 -186 34 -392 115 -77 31 -175 63 -217 71 -92 19
-189 21 -206 4 -8 -8 -12 -50 -12 -122 -1 -162 20 -1180 27 -1325 5 -122 5
-123 33 -139 63 -36 75 -99 35 -178 -13 -26 -21 -51 -17 -54 4 -3 24 -18 45
-34 43 -31 46 -48 15 -70 -19 -14 -64 -16 -294 -16 -301 0 -332 3 -344 34 -11
30 -3 44 35 56 18 6 40 19 50 30 16 18 15 21 -9 63 -45 76 -32 144 36 183 14
8 18 62 32 424 9 228 21 519 26 645 5 127 10 290 10 362 l0 133 -26 6 c-46 12
-206 -4 -279 -26 -38 -12 -135 -48 -215 -80 -213 -84 -254 -94 -395 -93 -102
1 -137 6 -235 33 -137 37 -146 39 -143 23 2 -7 43 -101 92 -210 92 -205 302
-687 320 -735 10 -27 12 -28 93 -28 46 0 89 -4 97 -9 11 -7 0 -27 -48 -90
l-62 -81 -632 0 -632 0 -58 79 c-31 44 -57 82 -57 85 0 3 42 6 94 6 63 0 97 4
103 13 5 6 29 59 53 117 24 58 106 240 183 405 76 165 166 360 199 433 l61
132 -28 30 c-31 33 -37 78 -14 106 36 44 161 60 209 27 37 -25 41 -34 38 -88
l-3 -50 80 -24 c99 -29 268 -39 366 -21 51 9 114 35 251 104 247 124 352 156
513 156 l83 0 35 39 c58 65 67 90 67 194 0 51 3 97 7 101 4 4 30 6 58 4 l50
-3 5 -111z"/>
<path d="M8352 6035 l3 -510 217 0 c119 0 219 3 223 7 3 3 2 14 -4 25 -6 10
-31 65 -55 123 -130 310 -364 842 -377 855 -6 6 -8 -186 -7 -500z"/>
<path d="M11483 6494 c4 -22 7 -248 7 -504 l0 -465 225 -2 c124 -1 225 2 225
6 0 4 -11 29 -24 57 -13 27 -78 175 -144 329 -243 563 -308 694 -289 579z"/>
<path d="M8254 6450 c-38 -68 -83 -159 -164 -335 -15 -33 -47 -100 -70 -150
-76 -163 -190 -424 -190 -435 0 -7 72 -10 228 -8 l227 3 7 410 c5 226 7 451 5
500 l-2 90 -41 -75z"/>
<path d="M11369 6413 c-61 -131 -59 -125 -154 -348 -96 -224 -164 -380 -204
-467 -16 -37 -26 -70 -21 -73 5 -3 103 -2 219 1 l211 7 1 226 c1 124 4 345 8
489 3 145 2 266 -2 269 -4 2 -30 -44 -58 -104z"/>
<path d="M3726 8858 c-25 -36 -20 -50 44 -113 43 -43 60 -67 60 -86 0 -24 4
-27 52 -32 55 -7 115 -34 328 -149 146 -79 293 -148 316 -148 8 0 14 4 14 10
0 34 -744 540 -794 540 -3 0 -12 -10 -20 -22z"/>
<path d="M15549 8855 c-59 -13 -169 -28 -245 -34 -196 -17 -340 -37 -402 -57
-61 -20 -102 -54 -102 -84 0 -13 32 -57 78 -107 l77 -85 65 6 c36 3 81 8 100
12 l35 5 -38 -32 c-39 -32 -67 -76 -67 -103 0 -21 66 -93 101 -112 16 -8 40
-14 54 -14 42 0 65 -17 65 -48 0 -37 17 -52 57 -52 l33 0 -6 -43 c-5 -37 -2
-47 21 -75 15 -18 51 -45 79 -60 46 -24 61 -27 151 -27 78 1 114 6 165 23 97
34 310 139 310 153 0 15 -85 6 -199 -21 -102 -25 -133 -25 -154 -2 -32 36 -21
51 68 94 47 22 85 44 85 49 0 4 -17 13 -38 19 -31 8 -53 6 -113 -11 -122 -34
-120 -34 -156 3 -18 18 -29 38 -25 44 9 14 121 66 190 88 28 10 52 22 52 27 0
4 -13 15 -28 23 -25 13 -38 13 -93 1 -35 -7 -89 -22 -119 -34 -30 -12 -64 -21
-75 -21 -24 0 -170 134 -161 148 3 6 41 29 84 52 139 75 259 177 301 257 26
51 11 52 -150 18z m-165 -159 c-2 -12 -131 -86 -150 -86 -18 0 -84 59 -84 76
0 9 19 14 68 17 105 6 167 3 166 -7z"/>
<path d="M3585 8614 c-22 -8 -93 -18 -158 -21 -87 -5 -120 -10 -124 -20 -3 -7
18 -48 45 -91 86 -130 74 -122 187 -133 137 -13 328 -73 351 -110 6 -11 -112
-139 -129 -139 -5 0 -29 18 -54 40 -57 50 -141 82 -215 82 -75 0 -117 -15
-157 -56 -57 -59 -62 -150 -15 -252 22 -47 59 -93 67 -83 2 2 22 30 45 61 23
31 50 59 61 63 23 7 97 -11 106 -26 6 -9 -44 -71 -148 -182 l-45 -49 -61 46
c-153 112 -282 135 -351 61 -19 -21 -23 -35 -22 -80 1 -55 14 -88 60 -158 25
-38 121 -97 157 -97 32 0 25 -29 -22 -93 -26 -36 -53 -68 -59 -70 -6 -3 -101
21 -210 52 -310 91 -463 127 -482 114 -27 -17 -26 -43 4 -74 33 -35 48 -40
389 -129 149 -39 320 -86 380 -104 177 -54 163 -55 212 12 146 201 266 357
377 492 l127 155 -40 35 c-41 35 -52 60 -28 60 6 0 41 -7 76 -15 l64 -15 43
36 c83 67 143 131 159 169 8 21 14 42 13 46 -2 3 -31 37 -66 74 -55 58 -69 68
-104 71 -26 2 -64 19 -102 43 -34 21 -94 56 -134 77 -41 20 -81 48 -89 60 -8
13 -20 55 -26 94 -12 78 -14 79 -82 54z m-315 -962 c43 -21 49 -46 19 -78 -31
-33 -91 -33 -124 1 -27 26 -32 64 -13 83 17 17 78 15 118 -6z"/>
<path d="M2762 7977 c-53 -16 -92 -59 -92 -99 0 -18 7 -42 15 -52 8 -11 15
-23 15 -27 0 -4 -29 -11 -65 -14 -50 -6 -68 -12 -76 -27 -15 -28 -7 -59 21
-79 24 -18 28 -18 115 3 50 12 92 23 94 24 1 2 -4 13 -13 26 -37 53 -14 87 83
119 34 12 65 28 68 35 12 32 -8 65 -50 84 -47 22 -67 23 -115 7z"/>
<path d="M15922 7890 c-180 -62 -256 -99 -260 -126 -2 -13 12 -34 42 -62 28
-26 50 -57 56 -80 12 -41 42 -81 81 -105 20 -13 32 -15 59 -7 19 6 55 10 80 9
l45 -1 -59 -18 c-32 -10 -63 -23 -69 -29 -14 -14 17 -58 54 -79 16 -10 32 -28
35 -42 3 -14 14 -44 26 -67 l21 -43 73 0 c42 0 76 -5 80 -11 3 -6 -10 -24 -30
-41 -20 -16 -36 -38 -36 -49 0 -26 23 -69 49 -93 37 -34 27 -46 -37 -46 -129
0 -222 -58 -222 -138 0 -109 124 -167 344 -160 l91 3 3 -32 c5 -50 20 -56 97
-38 75 17 95 19 95 7 0 -5 -19 -15 -42 -22 -24 -6 -56 -19 -72 -27 -28 -14
-28 -17 -23 -71 12 -108 25 -191 32 -202 15 -25 76 -40 159 -40 62 0 85 -4 89
-14 4 -11 15 -10 60 5 30 10 136 35 236 55 l182 37 64 -22 c68 -24 113 -23
165 4 33 18 148 122 161 147 17 32 -18 60 -83 66 -58 4 -125 -8 -457 -87 -118
-28 -223 -51 -233 -51 -13 0 -28 19 -48 63 -17 34 -30 68 -30 75 0 17 26 26
193 68 78 19 192 50 252 68 61 19 152 41 203 51 131 26 153 49 76 81 -72 30
-151 17 -499 -81 -179 -50 -232 -62 -241 -52 -6 6 -23 40 -37 75 l-27 63 23 8
c13 5 106 23 208 41 211 36 259 48 259 66 0 19 -74 59 -145 80 -51 14 -86 16
-241 10 -142 -5 -183 -4 -191 6 -5 7 -25 41 -44 76 -32 59 -33 64 -16 76 20
16 91 37 207 64 l85 19 -77 36 -76 37 -97 -30 c-54 -17 -105 -30 -114 -30 -17
1 -144 177 -149 208 -3 20 120 105 316 218 183 106 209 134 126 134 -80 0
-322 -96 -496 -196 l-46 -26 -104 107 c-56 59 -105 111 -106 116 -2 5 25 22
61 38 58 26 92 51 70 51 -4 0 -72 -22 -151 -50z m907 -907 c25 -21 -179 -60
-224 -43 -17 7 -25 16 -23 28 3 14 17 18 73 22 67 5 165 2 174 -7z m-595 -99
c19 -7 22 -64 4 -64 -16 0 -48 30 -48 46 0 7 6 15 13 17 6 3 13 6 14 6 1 1 8
-2 17 -5z"/>
<path d="M16717 7630 c-26 -16 -47 -36 -47 -45 0 -29 87 -57 116 -37 6 4 10
31 10 60 0 63 -10 66 -79 22z"/>
<path d="M16964 7574 c-12 -3 -30 -14 -40 -25 -15 -17 -16 -23 -4 -59 12 -35
11 -42 -3 -58 -10 -10 -17 -21 -17 -24 0 -9 90 -49 124 -55 61 -10 80 2 115
67 41 77 39 109 -9 132 -36 18 -129 30 -166 22z"/>
<path d="M2750 7076 c-61 -14 -100 -32 -100 -46 0 -20 76 -84 128 -108 l55
-25 76 17 c42 9 113 16 157 16 67 0 86 -4 108 -21 38 -30 63 -85 82 -179 l17
-81 -24 -25 c-13 -14 -37 -33 -53 -41 -22 -12 -26 -17 -15 -23 22 -11 151 5
189 24 69 35 130 109 130 156 0 29 -33 91 -62 115 -139 121 -280 188 -463 221
-94 16 -149 17 -225 0z"/>
<path d="M2243 6714 c-26 -6 -73 -58 -73 -81 0 -59 149 -177 340 -271 116 -56
185 -73 244 -58 59 15 119 94 132 175 15 95 75 5 82 -124 4 -73 1 -85 -25
-134 -15 -30 -45 -68 -66 -85 -36 -28 -45 -31 -110 -30 -78 1 -207 31 -302 70
-89 37 -93 38 -60 10 78 -68 261 -137 409 -156 89 -11 214 0 287 25 100 35
167 126 154 209 -17 103 -119 227 -230 280 -113 53 -329 102 -344 77 -5 -7
-14 -50 -20 -96 -20 -129 -19 -128 -141 -64 -101 54 -150 89 -150 108 0 22 63
81 85 81 40 0 38 18 -6 40 -41 22 -157 35 -206 24z"/>
<path d="M3354 6278 c-86 -103 -67 -218 36 -218 63 0 119 39 120 83 0 24 -27
22 -35 -3 -3 -11 -15 -20 -26 -20 -25 0 -24 16 1 32 27 17 25 34 -5 54 -23 15
-27 15 -50 0 -34 -22 -33 -59 3 -85 l27 -20 -26 -1 c-56 0 -78 69 -35 110 31
28 59 29 116 1 24 -11 45 -21 47 -21 2 0 3 14 3 31 0 48 -47 89 -103 89 -39 0
-49 -5 -73 -32z"/>
<path d="M3528 5962 c-122 -125 -140 -161 -145 -272 -5 -105 14 -150 99 -239
l58 -59 86 81 c98 93 117 121 134 194 19 84 -1 151 -93 316 l-44 77 -95 -98z"/>
<path d="M16151 5962 c-83 -138 -101 -247 -58 -351 22 -53 162 -230 182 -230
17 0 114 122 142 177 70 143 22 281 -145 416 -38 31 -72 56 -74 56 -3 0 -24
-31 -47 -68z"/>
<path d="M17442 5678 c-6 -6 -12 -24 -12 -39 0 -26 -1 -26 -92 -33 -50 -3
-130 -6 -178 -6 -91 0 -104 6 -112 45 -3 16 -12 21 -56 23 -47 3 -53 1 -61
-21 -11 -28 -29 -37 -79 -37 -20 0 -61 -3 -89 -6 -52 -7 -53 -7 -53 -40 0 -18
4 -35 9 -38 4 -3 53 -8 107 -12 78 -5 103 -11 117 -25 24 -26 88 -25 112 0 16
19 34 20 250 23 128 2 236 6 239 9 4 4 3 42 -1 85 l-8 79 -40 3 c-23 2 -46 -3
-53 -10z"/>
<path d="M3925 5481 c-126 -57 -158 -74 -201 -107 -64 -49 -81 -69 -110 -133
l-25 -53 -55 61 c-42 46 -75 70 -137 101 -72 35 -282 99 -291 89 -2 -2 0 -51
5 -108 16 -202 71 -263 338 -372 53 -22 108 -48 123 -59 34 -25 50 -25 66 0 6
11 64 54 127 96 164 109 213 178 222 314 6 80 -3 191 -15 189 -4 0 -25 -9 -47
-18z"/>
<path d="M15856 5452 c-9 -70 -7 -189 5 -236 17 -68 75 -133 208 -234 l125
-93 75 35 c42 19 112 48 156 64 200 72 269 159 285 359 4 59 7 109 5 111 -2 2
-12 -1 -22 -6 -10 -5 -62 -21 -115 -36 -130 -34 -211 -76 -279 -146 l-57 -58
-40 58 c-63 89 -153 154 -280 204 l-60 24 -6 -46z"/>
<path d="M2127 5463 c-9 -8 -9 -225 -1 -287 l7 -47 71 3 71 3 0 115 0 115 111
3 111 3 7 -62 c3 -34 6 -86 6 -115 l0 -54 75 0 75 0 0 120 0 120 80 0 c77 0
81 -1 90 -26 6 -14 10 -67 10 -119 0 -52 4 -96 9 -99 5 -3 41 -9 80 -12 l71
-7 0 115 c0 63 -3 143 -6 177 l-7 61 -427 0 c-235 0 -430 -3 -433 -7z"/>
<path d="M17135 5420 c-160 -10 -215 -41 -215 -123 0 -33 5 -40 35 -58 19 -12
35 -25 35 -30 0 -5 -18 -16 -40 -25 -42 -17 -53 -47 -28 -72 16 -16 83 -15
111 0 16 9 92 13 267 13 l245 0 0 40 0 40 -240 8 c-201 7 -242 10 -258 24 -23
22 -18 51 13 74 22 16 55 19 258 25 l232 7 0 37 c0 35 -2 38 -37 44 -46 7
-228 5 -378 -4z"/>
<path d="M6460 5404 c-19 -2 -87 -9 -150 -15 -63 -6 -232 -30 -375 -54 -346
-59 -371 -62 -581 -75 -131 -8 -234 -8 -374 0 -171 10 -445 41 -492 56 -38 12
-14 -18 83 -105 167 -150 329 -265 492 -347 26 -13 47 -29 47 -35 0 -17 -541
-269 -579 -269 -6 0 -11 -4 -11 -9 0 -19 240 -73 450 -100 449 -58 950 -50
1307 21 80 15 114 26 118 37 2 9 21 95 40 191 44 213 54 237 118 269 41 20 61
23 120 21 40 -2 151 -4 247 -4 138 0 187 4 233 18 31 10 57 21 57 25 0 17 -80
63 -150 87 -49 17 -106 28 -174 32 -92 6 -101 9 -101 27 0 18 8 20 75 23 138
6 298 -41 377 -111 27 -24 38 -28 51 -20 103 64 -190 201 -410 191 -68 -3 -78
-1 -78 14 0 24 51 32 178 25 134 -6 211 -27 334 -88 132 -66 163 -65 93 5 -69
70 -239 134 -450 171 -86 15 -418 28 -495 19z m633 -349 c26 -9 45 -20 43 -24
-3 -4 -56 -2 -118 5 -62 7 -141 13 -175 13 -51 1 -63 4 -63 17 0 14 15 16 133
11 89 -3 147 -10 180 -22z"/>
<path d="M12861 5398 c-121 -13 -305 -62 -386 -102 -70 -35 -155 -107 -155
-133 0 -20 31 -29 44 -11 56 75 274 150 441 152 90 1 138 -9 132 -27 -2 -8
-42 -14 -118 -18 -160 -9 -284 -50 -364 -120 -42 -37 -43 -51 -9 -78 29 -23
44 -20 44 8 0 65 182 126 397 133 85 3 99 -1 90 -27 -5 -11 -23 -15 -79 -15
-98 -1 -210 -22 -282 -54 -55 -24 -96 -58 -96 -78 0 -14 47 -9 53 5 3 8 32 21
65 31 63 17 329 43 339 32 16 -16 -20 -25 -129 -35 -109 -10 -239 -34 -262
-48 -41 -26 210 -40 399 -23 132 12 148 12 190 -4 26 -10 56 -32 71 -51 27
-36 70 -190 99 -361 l18 -101 196 -24 c178 -22 233 -24 601 -24 426 0 510 6
785 56 109 20 283 64 293 73 3 3 -4 8 -14 12 -70 24 -267 105 -359 147 -158
74 -225 114 -219 132 4 8 10 15 14 15 10 0 279 161 362 217 121 81 273 222
257 238 -2 1 -28 -1 -58 -6 -152 -24 -418 -41 -656 -42 -267 -1 -349 6 -620
53 -470 82 -823 107 -1084 78z"/>
<path d="M2752 5057 c-19 -22 2 -39 44 -35 32 2 40 7 42 26 3 20 -1 22 -36 22
-22 0 -44 -6 -50 -13z"/>
<path d="M7425 5024 c-130 -73 -297 -111 -535 -123 -123 -6 -124 -6 -95 -22
51 -28 204 -79 345 -115 146 -37 396 -82 404 -73 10 9 -38 362 -49 364 -5 2
-37 -13 -70 -31z"/>
<path d="M15765 5048 c-24 -70 -46 -186 -46 -246 0 -95 25 -149 104 -222 110
-103 152 -145 162 -163 9 -17 13 -17 66 7 32 14 116 41 189 60 72 20 148 45
169 55 76 39 141 135 175 261 8 30 18 66 22 79 l7 24 -64 -6 c-90 -10 -225
-45 -282 -74 -27 -13 -68 -42 -92 -64 -23 -21 -47 -39 -52 -39 -6 0 -24 29
-42 64 -36 73 -111 149 -226 226 -81 55 -84 56 -90 38z"/>
<path d="M2555 5043 c-72 -3 -409 -33 -412 -37 -2 -2 0 -24 3 -49 8 -55 -11
-52 209 -32 221 21 288 20 308 -3 20 -22 22 -46 5 -60 -7 -5 -116 -24 -243
-41 -126 -18 -234 -36 -239 -41 -4 -4 -3 -24 4 -44 14 -44 0 -44 285 -11 246
28 276 36 305 72 27 35 25 79 -7 143 -45 86 -90 108 -218 103z"/>
<path d="M3934 4991 c-152 -98 -202 -154 -219 -244 -4 -20 -9 -37 -11 -37 -1
0 -31 21 -66 48 -77 58 -142 87 -265 117 -152 38 -173 40 -173 18 0 -35 42
-168 67 -216 35 -63 120 -142 188 -173 31 -14 106 -35 168 -45 61 -11 133 -30
159 -43 51 -24 58 -24 58 6 0 11 42 61 98 116 128 127 147 165 147 292 0 99
-27 220 -49 220 -7 0 -52 -26 -102 -59z"/>
<path d="M12222 4978 c-21 -143 -36 -278 -30 -283 9 -10 306 42 443 77 151 37
341 100 338 111 -2 5 -60 10 -130 12 -138 3 -291 25 -390 55 -67 21 -178 73
-188 90 -17 28 -32 6 -43 -62z"/>
<path d="M16993 5015 c-29 -15 -63 -40 -75 -57 -28 -41 -36 -119 -14 -152 21
-33 116 -62 247 -76 165 -17 223 -14 284 15 59 28 79 53 97 118 10 38 9 49 -8
83 -27 55 -83 85 -154 82 -35 -2 -55 -7 -55 -15 0 -7 25 -27 55 -45 52 -31 55
-35 55 -73 0 -36 -4 -42 -40 -62 -22 -13 -57 -23 -79 -23 -38 0 -38 0 -32 33
4 17 9 59 12 92 9 88 -7 99 -140 103 -93 3 -105 1 -153 -23z m162 -67 c21 -9
25 -18 25 -52 0 -63 -9 -70 -75 -63 -88 9 -120 51 -72 94 34 32 80 40 122 21z"/>
<path d="M6557 4838 c-62 -279 -117 -612 -117 -706 1 -117 81 -196 283 -277
198 -80 492 -150 837 -200 847 -121 2571 -151 3815 -64 1057 73 1631 193 1814
377 74 75 85 121 78 316 -7 187 -49 472 -83 560 -9 23 -17 21 -136 -28 -287
-119 -597 -193 -1108 -265 -264 -38 -787 -76 -1245 -91 -365 -12 -1253 -12
-1655 0 -677 20 -1458 97 -1780 175 -234 57 -543 156 -642 206 -48 24 -55 24
-61 -3z m5985 -428 c94 -229 123 -300 156 -378 20 -48 31 -87 26 -92 -5 -4
-61 -13 -123 -19 -90 -9 -117 -8 -123 2 -4 6 -20 48 -34 92 -15 44 -58 163
-96 264 -38 101 -67 189 -65 195 4 13 125 35 181 33 l39 -2 39 -95z m-359
-208 c43 -130 85 -252 94 -270 9 -18 14 -34 12 -37 -3 -2 -83 -9 -179 -15
-187 -11 -230 -17 -230 -30 0 -4 -14 -21 -31 -38 -50 -49 -152 -76 -284 -77
-120 0 -167 11 -215 51 -27 24 -33 24 -87 15 -130 -23 -556 -34 -1328 -34
-824 -1 -1453 15 -1870 48 -517 40 -505 39 -505 57 0 6 27 92 59 192 69 213
88 293 72 309 -6 6 -11 17 -11 24 0 10 32 13 143 13 78 0 148 -4 156 -9 11 -7
8 -25 -17 -102 -25 -78 -88 -280 -108 -351 -5 -17 7 -18 160 -18 91 0 167 3
169 8 2 4 7 24 11 45 7 35 6 37 -21 37 -37 0 -57 14 -50 34 6 14 30 16 177 16
197 0 194 1 163 -85 -11 -30 -18 -57 -15 -60 3 -3 39 -5 80 -5 l75 0 -6 38
c-3 20 -9 52 -12 70 l-7 32 135 0 c75 0 138 -4 141 -9 4 -5 0 -39 -8 -75 -7
-36 -11 -68 -8 -71 3 -3 34 -5 69 -5 l63 0 0 34 c0 18 -9 45 -20 59 -23 29
-26 53 -6 60 7 3 76 5 152 4 l139 -2 -1 -30 c-1 -16 -3 -50 -5 -75 l-3 -45
184 0 185 0 0 40 c0 34 -4 40 -25 45 -15 3 -26 14 -28 26 -3 19 3 22 76 27 44
2 119 3 166 0 l87 -6 -3 -71 -3 -71 130 2 c72 2 133 3 138 3 12 0 8 33 -8 64
-22 42 -19 75 8 81 12 3 74 4 137 3 l115 -3 5 -75 5 -75 60 0 60 0 3 33 c3 27
-1 34 -22 42 -21 8 -26 16 -26 44 l0 34 114 7 c158 10 156 11 156 -81 l0 -75
63 3 62 3 -3 76 -4 76 116 7 c156 10 154 10 158 -72 l3 -67 75 0 75 0 5 49 c4
37 11 53 30 67 34 25 132 39 270 39 179 -1 225 -18 268 -101 12 -24 27 -44 32
-43 6 1 28 2 51 3 48 1 51 -21 -24 246 -27 99 -50 191 -51 205 -1 24 3 26 79
36 44 6 98 12 120 13 l40 1 78 -238z m-3374 177 c32 -11 51 -35 51 -63 0 -80
-200 -70 -208 10 -5 53 78 81 157 53z m-140 -136 c38 -29 38 -58 1 -93 -37
-34 -91 -40 -139 -15 -60 30 -54 103 9 128 27 12 102 -1 129 -20z m-1153 -10
c91 -59 31 -210 -112 -285 -94 -49 -159 -62 -294 -62 -122 0 -179 12 -217 47
-26 24 -28 44 -8 71 15 19 16 19 57 -5 65 -36 161 -34 248 7 74 36 120 74 120
102 0 20 -39 52 -63 52 -8 0 -20 6 -26 14 -15 18 -1 29 64 51 103 35 185 38
231 8z m1408 -14 c32 -25 33 -49 2 -78 -44 -42 -133 -45 -176 -6 -30 27 -26
71 8 89 42 23 134 20 166 -5z m614 5 c34 -24 43 -54 24 -86 -46 -79 -212 -57
-220 30 -3 27 2 35 30 52 42 25 133 27 166 4z m330 -56 l-3 -53 -112 -3 -113
-3 0 56 0 55 116 0 115 0 -3 -52z"/>
<path d="M11550 3963 c-37 -6 -50 -29 -39 -62 17 -48 88 -67 128 -33 19 15 20
21 11 49 -8 21 -21 35 -42 42 -17 6 -31 10 -32 10 -1 -1 -12 -4 -26 -6z"/>
<path d="M2507 4659 c-107 -14 -176 -42 -224 -93 -36 -38 -43 -51 -43 -85 0
-22 5 -52 12 -66 16 -35 1 -48 -48 -39 -73 14 -105 80 -69 144 25 43 19 60
-19 60 -59 0 -96 -12 -126 -40 -26 -24 -30 -35 -30 -81 0 -72 34 -130 96 -159
41 -20 56 -22 152 -17 159 8 438 35 501 48 127 26 190 87 172 168 -19 84 -93
141 -211 160 -72 12 -68 12 -163 0z m214 -114 c16 -9 35 -27 41 -41 18 -39
-13 -62 -108 -79 -171 -31 -285 -12 -292 47 -4 35 35 61 116 77 31 6 66 13 77
15 35 8 135 -3 166 -19z"/>
<path d="M16894 4651 c-68 -42 -85 -111 -38 -155 32 -29 24 -46 -20 -46 -19 0
-44 -9 -57 -19 -21 -17 -22 -22 -11 -38 43 -62 52 -81 50 -103 -3 -22 -8 -25
-43 -25 -48 0 -65 -9 -65 -35 0 -39 83 -58 168 -41 50 11 77 9 222 -14 270
-44 246 -44 261 4 7 23 10 43 8 45 -2 2 -98 20 -214 40 -214 38 -255 52 -255
86 0 42 55 43 320 6 63 -9 130 -18 148 -20 28 -4 34 -1 42 20 20 51 14 61 -42
67 -136 16 -382 58 -406 69 -36 17 -40 52 -9 73 22 14 38 14 173 0 82 -8 182
-20 222 -25 115 -16 117 -15 130 27 6 20 9 40 7 44 -6 8 -107 23 -308 44 -188
20 -245 19 -283 -4z"/>
<path d="M3040 4311 c-27 -8 -28 -23 -8 -73 12 -32 13 -32 94 -17 68 13 85 29
75 67 -7 26 -11 27 -72 29 -35 1 -75 -2 -89 -6z"/>
<path d="M2750 4260 c-159 -25 -400 -69 -411 -76 -15 -9 -10 -41 10 -65 l18
-23 174 28 c285 46 404 67 411 74 3 4 -1 23 -10 42 -21 43 -30 44 -192 20z"/>
<path d="M16441 4136 c-29 -35 5 -59 179 -121 95 -34 115 -38 210 -39 58 -1
166 -10 242 -20 162 -22 198 -18 233 28 14 18 25 38 25 44 0 18 -42 24 -93 12
-38 -8 -82 -5 -232 15 -102 14 -187 25 -189 25 -2 0 -9 14 -15 30 -5 17 -16
30 -24 30 -8 0 -28 3 -46 6 -27 6 -32 3 -41 -20 -12 -32 -28 -33 -82 -5 -56
29 -149 37 -167 15z"/>
<path d="M2880 4103 c-97 -15 -459 -98 -468 -107 -7 -8 9 -64 22 -75 8 -7 64
1 180 25 252 51 290 56 321 42 33 -15 45 -56 21 -74 -10 -7 -113 -35 -231 -64
-117 -28 -220 -57 -230 -64 -16 -11 -15 -14 5 -49 12 -20 24 -37 27 -37 2 0
39 9 81 19 43 11 151 36 242 56 91 21 174 42 185 47 40 21 65 51 65 80 0 56
-72 163 -131 194 -28 14 -41 15 -89 7z"/>
<path d="M5675 4003 c-111 -43 -476 -172 -528 -185 -22 -6 -37 -16 -35 -23 3
-15 163 -193 195 -218 21 -16 24 -16 71 14 l50 31 91 -77 c50 -42 91 -81 91
-87 0 -6 -16 -30 -35 -54 l-35 -43 120 -96 c67 -53 123 -95 124 -93 1 1 15 39
31 83 16 43 72 189 125 323 l97 243 -133 110 c-73 60 -134 109 -136 108 -2 -1
-43 -17 -93 -36z m123 -190 c-33 -71 -94 -183 -100 -183 -16 0 -128 82 -128
94 0 7 17 18 38 25 20 6 64 24 97 40 58 29 100 39 93 24z"/>
<path d="M16675 3916 c-97 -31 -156 -90 -158 -159 -2 -84 52 -135 152 -144 69
-7 137 20 210 81 79 67 118 79 159 50 54 -38 8 -83 -93 -92 -47 -3 -65 -9 -65
-19 0 -45 48 -73 125 -73 80 0 175 88 175 162 0 75 -89 132 -205 132 -82 0
-103 -9 -200 -89 -50 -41 -76 -55 -99 -55 -92 0 -65 93 37 125 70 23 84 37 69
70 -13 29 -42 32 -107 11z"/>
<path d="M13865 3822 c-16 -11 -59 -45 -95 -77 -36 -31 -125 -102 -197 -157
-73 -55 -133 -102 -133 -105 0 -3 69 -76 153 -162 83 -86 176 -188 205 -227
l53 -72 106 70 c58 38 111 72 119 75 25 9 15 28 -56 98 -38 38 -70 74 -70 80
0 6 16 19 36 28 l35 17 86 -50 c47 -27 87 -50 90 -50 8 0 248 181 251 189 3 8
-66 32 -213 73 -60 17 -115 36 -122 42 -9 8 -9 23 -2 54 12 56 -13 117 -66
158 -49 37 -135 45 -180 16z m-12 -233 c31 -16 77 -61 77 -75 0 -19 -68 -66
-88 -60 -28 9 -105 93 -97 105 6 11 60 38 78 40 5 1 18 -4 30 -10z"/>
<path d="M2920 3724 c-42 -8 -153 -46 -191 -65 -20 -10 -48 -32 -63 -49 -49
-59 -28 -154 47 -214 32 -26 49 -31 106 -34 141 -8 150 43 18 92 -82 31 -101
98 -36 131 41 22 62 12 99 -45 17 -27 52 -67 76 -90 46 -42 46 -42 102 -35
190 23 259 141 145 246 -52 49 -91 63 -188 65 -49 1 -101 0 -115 -2z m180 -96
c77 -39 79 -99 3 -114 -28 -5 -38 -1 -82 41 -52 49 -64 80 -33 88 38 10 70 6
112 -15z"/>
<path d="M6230 3517 c-79 -109 -242 -310 -304 -375 -51 -53 -58 -64 -45 -76 8
-7 66 -45 129 -84 63 -38 176 -109 250 -156 122 -78 170 -100 170 -78 0 4 25
27 55 52 30 25 55 48 55 51 0 4 -72 55 -160 114 -88 59 -160 109 -160 111 0 2
61 86 135 187 74 100 135 185 135 188 0 7 -198 129 -208 129 -4 0 -27 -29 -52
-63z"/>
<path d="M16440 3555 c-65 -20 -102 -62 -108 -123 -4 -44 -1 -52 28 -86 18
-20 51 -46 73 -58 55 -28 258 -78 316 -78 89 0 201 76 201 136 0 85 -108 157
-304 205 -94 22 -143 23 -206 4z m143 -66 c20 -5 37 -16 37 -23 0 -19 -100
-96 -126 -96 -49 0 -72 61 -35 94 15 14 54 31 81 35 3 1 22 -4 43 -10z m221
-90 c48 -38 28 -72 -53 -90 -44 -10 -131 8 -131 26 0 17 108 85 136 85 12 0
33 -9 48 -21z"/>
<path d="M3115 3366 c-132 -42 -218 -99 -231 -153 -16 -61 22 -130 89 -162 53
-25 148 -29 167 -6 20 24 4 43 -54 69 -58 26 -91 62 -80 90 7 18 54 46 76 46
15 0 77 -62 128 -129 31 -41 36 -43 73 -38 60 8 149 57 175 97 43 65 7 139
-92 188 -58 29 -156 28 -251 -2z m216 -79 c39 -26 48 -57 24 -81 -28 -27 -62
-19 -105 25 -22 23 -40 47 -40 54 0 31 76 33 121 2z"/>
<path d="M13030 3295 c-80 -35 -152 -68 -161 -73 -13 -9 -14 -21 -3 -108 19
-154 44 -433 44 -497 0 -31 2 -57 5 -57 12 0 265 102 269 109 3 4 -2 27 -10
51 -23 68 -17 80 51 105 33 12 77 29 99 38 54 24 69 21 89 -13 10 -16 24 -30
32 -30 14 0 292 143 308 159 5 5 -19 24 -58 46 -74 41 -372 239 -449 298 -27
20 -54 37 -60 36 -6 0 -76 -29 -156 -64z m165 -217 c41 -35 75 -66 75 -71 0
-9 -83 -46 -121 -54 -25 -5 -28 -2 -37 43 -24 112 -25 144 -8 144 9 0 50 -28
91 -62z"/>
<path d="M16192 3287 c-18 -18 -32 -37 -32 -43 0 -5 33 -29 73 -53 112 -69
217 -145 217 -158 0 -18 -5 -17 -106 17 -157 54 -271 81 -299 70 -26 -10 -68
-68 -59 -82 3 -4 25 -8 50 -8 57 0 154 -20 336 -69 79 -22 162 -42 184 -46 41
-6 42 -5 79 45 45 61 45 61 -70 130 -46 28 -137 91 -204 140 -66 50 -124 90
-128 90 -5 0 -23 -15 -41 -33z"/>
<path d="M6491 3119 c-30 -33 -52 -60 -50 -62 2 -2 29 -14 59 -27 30 -14 93
-49 139 -78 l86 -54 23 29 c13 15 37 43 53 61 29 34 36 52 21 52 -5 0 -64 32
-131 70 -68 39 -128 69 -134 69 -7 -1 -36 -28 -66 -60z"/>
<path d="M6954 2993 c-100 -169 -233 -375 -249 -385 -6 -5 -6 -10 0 -16 11
-10 183 -82 196 -82 5 0 16 15 25 33 55 106 188 317 196 309 5 -5 -12 -84 -42
-194 -27 -102 -50 -190 -50 -195 0 -10 219 -93 244 -93 6 0 65 72 131 160 66
88 126 160 134 160 8 0 11 -6 6 -17 -4 -10 -22 -60 -41 -111 -18 -51 -51 -131
-73 -178 -27 -57 -36 -86 -28 -89 131 -42 241 -73 247 -70 4 3 13 33 19 67 12
65 88 354 122 467 10 35 19 69 19 75 0 10 -270 116 -294 116 -2 0 -50 -60
-106 -134 -55 -74 -107 -139 -115 -146 -21 -18 -20 9 10 176 14 76 25 148 25
159 0 16 -26 31 -138 78 -76 31 -141 57 -144 57 -3 0 -45 -66 -94 -147z"/>
<path d="M3495 3071 c-117 -41 -294 -110 -351 -137 -19 -9 -34 -24 -34 -33 0
-22 41 -61 64 -61 10 0 94 32 187 70 174 72 193 77 204 60 4 -6 28 -22 55 -35
l49 -25 41 21 c51 27 49 50 -5 63 -49 11 -59 25 -38 48 15 17 15 20 -7 43 -13
14 -31 25 -39 25 -9 0 -65 -18 -126 -39z"/>
<path d="M12438 3057 c-64 -23 -119 -45 -122 -48 -3 -3 10 -45 30 -93 19 -47
34 -94 32 -103 -3 -18 -163 -87 -178 -78 -4 3 -20 44 -35 92 -14 49 -29 94
-31 102 -3 8 -11 10 -22 6 -9 -4 -61 -22 -116 -41 -54 -18 -104 -38 -111 -44
-10 -8 -7 -25 15 -83 16 -39 56 -162 90 -272 34 -110 65 -209 70 -221 8 -21
10 -21 135 22 69 24 130 46 135 49 5 3 -7 49 -25 103 -19 53 -35 102 -35 108
0 13 136 64 169 64 17 0 25 -16 51 -100 17 -55 34 -100 38 -100 14 0 245 89
253 97 6 6 3 22 -5 39 -30 61 -130 324 -165 431 -20 62 -40 113 -46 112 -5 0
-63 -19 -127 -42z"/>
<path d="M9410 2900 l0 -160 116 0 115 0 -7 -545 c-4 -300 -5 -545 -2 -545 2
0 31 13 64 28 32 16 97 44 143 63 60 25 86 40 92 57 5 13 9 230 9 482 l0 459
126 3 126 3 4 158 3 157 -394 0 -395 0 0 -160z"/>
<path d="M3970 2999 c-8 -5 -32 -16 -52 -24 -21 -9 -38 -19 -38 -23 0 -4 16
-25 34 -47 l35 -40 56 30 c31 17 59 34 62 38 6 10 -56 77 -71 76 -6 0 -18 -4
-26 -10z"/>
<path d="M15906 2935 c-60 -21 -91 -57 -91 -107 0 -39 -2 -42 -40 -52 -39 -11
-85 -61 -85 -93 0 -24 28 -26 63 -4 46 28 67 27 129 -10 89 -53 307 -159 325
-159 16 0 73 50 73 64 0 3 -84 48 -186 98 -103 51 -189 99 -191 106 -9 22 47
72 80 72 17 0 84 -24 151 -53 214 -95 243 -107 258 -107 16 0 68 51 68 67 0
12 -350 158 -429 179 -67 17 -75 17 -125 -1z"/>
<path d="M3750 2880 c-19 -11 -124 -63 -232 -115 -109 -52 -198 -97 -198 -100
0 -13 56 -75 68 -75 23 0 482 231 482 242 0 18 -52 68 -69 68 -9 0 -32 -9 -51
-20z"/>
<path d="M7987 2754 c-4 -4 -7 -19 -7 -34 0 -15 -25 -107 -55 -205 -76 -246
-74 -300 11 -375 74 -65 222 -110 359 -110 102 0 156 15 205 57 49 42 69 80
104 198 15 50 43 136 63 193 19 57 32 106 28 110 -3 4 -63 19 -132 33 -86 18
-126 23 -129 15 -2 -6 -24 -87 -49 -181 -57 -212 -61 -222 -98 -242 -62 -32
-157 8 -157 66 1 24 44 162 104 330 15 40 25 76 22 78 -3 3 -56 18 -118 33
-62 16 -120 31 -129 34 -8 4 -18 3 -22 0z"/>
<path d="M3901 2739 c-47 -9 -431 -192 -431 -206 0 -4 19 -23 42 -42 l41 -35
71 38 c133 71 263 135 287 141 17 4 35 -1 58 -17 46 -31 59 -53 45 -75 -6 -10
-82 -56 -169 -104 -88 -47 -161 -91 -163 -97 -5 -15 48 -61 71 -62 16 0 98 41
263 131 171 94 178 175 25 278 -82 55 -91 59 -140 50z"/>
<path d="M15418 2727 c-16 -13 -28 -27 -28 -32 0 -12 4 -14 350 -201 146 -79
273 -144 283 -144 19 0 87 47 87 60 0 4 -39 26 -87 50 -49 24 -192 99 -319
167 -127 67 -237 123 -245 123 -8 -1 -26 -11 -41 -23z"/>
<path d="M11580 2729 c-210 -27 -361 -94 -405 -180 -19 -36 -19 -122 -1 -157
39 -75 84 -93 255 -101 110 -5 136 -9 145 -23 15 -24 -15 -53 -69 -67 -54 -14
-185 -14 -219 -1 -14 5 -27 6 -29 2 -4 -6 12 -174 17 -179 5 -6 200 20 276 37
198 43 320 143 320 264 0 37 -6 52 -32 82 -56 63 -103 78 -256 80 -140 2 -166
9 -146 42 21 34 66 46 187 50 l119 5 -6 30 c-3 16 -6 51 -6 78 l0 49 -42 -1
c-24 -1 -72 -5 -108 -10z"/>
<path d="M10635 2548 c-44 -4 -111 -12 -149 -16 l-70 -7 -12 -45 c-18 -70
-119 -342 -176 -473 -28 -65 -49 -119 -47 -121 2 -2 69 2 149 8 l144 11 8 44
c4 25 12 49 16 53 12 12 253 34 274 25 9 -3 19 -19 23 -36 10 -47 21 -50 125
-36 52 7 121 16 153 20 31 3 57 11 57 16 0 5 -26 44 -57 87 -32 42 -116 168
-187 280 -104 165 -132 202 -150 201 -11 -1 -57 -6 -101 -11z m15 -250 c56
-114 55 -116 -32 -120 -40 -2 -77 -1 -81 3 -5 3 -1 35 8 70 40 159 49 163 105
47z"/>
<path d="M8913 2499 c-95 -37 -142 -111 -130 -204 8 -56 54 -95 158 -134 125
-47 169 -69 169 -86 0 -51 -140 -46 -255 9 -42 21 -81 34 -86 29 -4 -4 -21
-40 -38 -80 -23 -56 -27 -74 -17 -82 7 -6 59 -22 117 -37 80 -20 137 -27 244
-30 129 -4 144 -3 194 18 79 33 114 81 119 161 3 52 0 67 -20 96 -28 41 -109
85 -198 107 -122 31 -150 60 -86 91 30 14 44 15 106 4 39 -6 99 -25 133 -41
34 -16 65 -26 68 -22 4 4 16 40 28 81 26 86 28 83 -74 105 -203 44 -345 49
-432 15z"/>
<path d="M4220 2416 c-63 -14 -148 -55 -202 -98 -53 -41 -78 -87 -78 -141 0
-39 5 -52 34 -80 19 -19 51 -39 71 -43 20 -5 37 -13 38 -19 3 -18 -67 -44
-120 -45 -66 0 -106 30 -122 95 -18 71 -65 81 -105 23 -33 -47 -14 -111 48
-166 93 -81 212 -68 403 46 54 33 161 96 238 142 77 46 153 92 169 103 l29 20
-23 19 c-12 10 -34 18 -49 18 -20 0 -37 11 -60 40 -36 45 -88 75 -146 85 -22
4 -47 8 -55 10 -8 2 -40 -2 -70 -9z m145 -99 c76 -43 57 -73 -95 -156 -86 -46
-133 -52 -173 -21 -55 44 -45 79 38 134 103 69 164 80 230 43z"/>
<path d="M15233 2340 c-113 -23 -181 -106 -146 -177 17 -36 86 -88 143 -108
22 -8 55 -26 73 -39 117 -89 290 -74 357 30 38 60 38 92 2 127 -35 33 -53 34
-89 3 -25 -22 -26 -26 -14 -52 12 -27 11 -30 -15 -53 -26 -22 -34 -23 -111
-18 -79 6 -123 18 -123 36 0 4 19 17 42 27 54 24 178 105 198 128 13 16 12 20
-9 37 -53 43 -225 76 -308 59z m118 -80 c39 -22 11 -59 -60 -80 -75 -21 -125
52 -53 79 36 13 89 13 113 1z"/>
<path d="M14724 2206 l-39 -34 43 -44 c48 -50 52 -69 17 -92 -33 -22 -33 -46
0 -46 14 0 34 -5 44 -12 15 -9 24 -7 46 10 15 12 37 22 48 22 11 0 76 -46 145
-101 144 -117 163 -129 215 -129 30 0 46 8 82 41 25 23 45 50 45 60 0 24 -43
35 -76 20 -45 -20 -67 -12 -164 63 -53 40 -111 81 -128 90 -39 20 -40 34 -5
62 l27 21 -27 18 c-24 15 -33 16 -73 5 l-45 -13 -47 47 c-26 25 -52 46 -58 46
-6 0 -28 -15 -50 -34z"/>
<path d="M5140 1994 c-145 -38 -271 -130 -325 -237 -120 -241 206 -423 431
-241 24 19 27 26 18 41 -21 34 -57 38 -115 14 -101 -44 -200 -14 -215 65 -25
134 218 299 387 263 85 -18 120 -62 107 -133 -3 -18 2 -20 47 -17 55 3 79 22
90 74 13 57 -70 143 -167 172 -64 19 -185 18 -258 -1z"/>
<path d="M4322 1944 c-35 -17 -62 -40 -77 -64 -13 -21 -38 -48 -54 -60 -34
-23 -40 -45 -15 -54 52 -20 123 14 203 99 86 90 53 134 -57 79z"/>
<path d="M14585 1956 c-22 -7 -52 -19 -67 -27 -30 -16 -88 -85 -88 -105 0 -7
14 -29 31 -49 42 -48 71 -45 80 8 12 75 81 112 152 82 21 -8 37 -20 37 -26 0
-5 -17 -26 -38 -47 -49 -47 -80 -122 -64 -157 15 -32 85 -82 134 -95 77 -21
171 15 221 86 27 38 35 44 64 42 36 -2 75 26 66 48 -3 7 -98 61 -211 119 -114
58 -212 112 -218 120 -13 18 -45 18 -99 1z m294 -222 c48 -40 36 -77 -33 -104
-49 -18 -106 16 -106 63 0 8 9 26 21 41 28 35 76 35 118 0z"/>
<path d="M14103 1837 c-17 -7 -34 -15 -38 -18 -3 -4 12 -28 34 -53 49 -56 64
-83 56 -97 -4 -5 -25 -21 -46 -35 -34 -21 -47 -24 -85 -18 -55 8 -148 -10
-200 -40 -22 -12 -48 -38 -58 -57 -17 -32 -18 -40 -6 -68 33 -81 155 -119 278
-87 80 20 131 20 160 0 31 -22 28 -51 -10 -75 -28 -17 -42 -19 -98 -14 -36 4
-79 7 -96 8 -41 1 -124 -31 -124 -47 0 -25 109 -51 210 -51 122 0 185 21 235
77 32 35 36 45 32 74 -17 105 -157 168 -286 130 -103 -31 -178 -17 -169 31 6
30 47 45 115 39 60 -5 63 -4 69 19 5 20 18 28 74 45 37 11 75 20 84 20 9 0 60
-42 114 -93 115 -110 152 -137 185 -137 27 0 153 56 163 72 4 6 -4 19 -17 30
-23 18 -49 19 -106 2 -17 -5 -36 7 -90 58 -37 34 -87 79 -111 98 -59 49 -52
63 43 95 19 6 19 7 -3 25 -35 29 -87 35 -133 17 l-39 -15 -32 39 c-33 41 -51
46 -105 26z"/>
<path d="M5558 1601 c-70 -23 -112 -48 -160 -98 -92 -95 -76 -214 36 -272 156
-80 407 16 470 181 15 39 16 52 6 82 -34 103 -202 155 -352 107z m198 -102
c27 -26 30 -48 10 -87 -49 -95 -212 -147 -271 -87 -42 41 -26 99 41 150 78 59
171 70 220 24z"/>
<path d="M13468 1593 c-44 -11 -390 -123 -398 -128 -6 -4 25 -52 68 -108 43
-56 122 -160 176 -232 53 -71 107 -143 120 -160 l24 -30 143 49 c216 73 300
107 306 122 3 7 -5 27 -17 45 -28 38 -31 37 -210 -27 -71 -25 -136 -44 -146
-42 -23 4 -120 136 -108 147 5 5 65 26 134 47 69 21 126 39 128 40 2 1 -7 18
-20 38 -29 45 -40 45 -177 1 -142 -46 -149 -46 -188 12 -18 26 -30 50 -25 54
4 3 66 26 137 49 72 24 133 44 137 47 10 5 -44 83 -56 82 -6 -1 -19 -3 -28 -6z"/>
<path d="M5944 1313 c-181 -243 -177 -232 -102 -252 49 -13 32 -28 160 139 79
102 129 140 188 140 41 0 80 -24 80 -48 0 -9 -50 -81 -110 -159 -61 -78 -110
-145 -110 -147 0 -10 111 -29 119 -20 36 38 235 302 242 322 13 34 -16 82 -66
107 -43 21 -154 28 -188 11 -16 -7 -18 -5 -15 15 2 17 -3 25 -22 30 -59 17
-62 14 -176 -138z"/>
<path d="M6620 1341 c-20 -40 -22 -41 -60 -35 -31 5 -45 3 -60 -11 -26 -23
-26 -55 0 -62 11 -3 20 -12 20 -19 0 -8 -32 -62 -71 -120 -84 -126 -100 -160
-88 -192 9 -25 70 -56 132 -66 31 -6 41 -3 62 18 30 30 25 47 -20 69 -19 9
-35 23 -35 31 0 9 30 61 66 117 65 99 67 101 98 94 59 -14 69 -11 89 23 24 41
17 62 -23 62 -43 0 -51 27 -16 57 15 12 34 23 42 23 8 0 14 6 14 14 0 8 -16
16 -42 20 -24 4 -53 9 -65 12 -18 5 -26 -2 -43 -35z"/>
<path d="M12642 1350 c-18 -4 -36 -10 -39 -13 -4 -5 303 -532 327 -560 7 -8
120 11 133 23 4 3 -19 47 -51 96 -32 49 -110 173 -173 276 -124 204 -117 197
-197 178z"/>
<path d="M6848 1193 c-35 -41 -208 -340 -208 -361 0 -27 47 -58 101 -67 71
-12 136 49 69 65 -39 9 -36 42 10 110 89 130 113 147 171 113 l29 -17 48 47
c46 47 46 48 27 63 -21 16 -95 15 -143 -1 -22 -7 -23 -5 -20 26 3 32 1 34 -33
37 -24 2 -40 -3 -51 -15z"/>
<path d="M12382 1095 c-78 -17 -123 -42 -140 -78 -25 -51 0 -77 76 -77 22 0
35 6 39 18 14 40 46 62 88 62 48 0 95 -30 95 -60 0 -14 -12 -21 -52 -29 -114
-25 -168 -68 -168 -134 0 -29 35 -83 73 -111 60 -44 228 -27 297 30 23 20 34
24 43 15 14 -14 38 -14 72 -1 l26 10 -20 27 c-10 16 -46 73 -79 128 -89 147
-108 172 -140 189 -43 22 -138 27 -210 11z m222 -237 c39 -55 2 -112 -70 -112
-37 0 -84 36 -84 64 0 23 33 51 72 60 54 13 66 11 82 -12z"/>
<path d="M7216 1076 c-51 -19 -109 -75 -95 -92 15 -18 78 -15 126 7 23 10 52
19 65 19 32 0 68 -27 68 -51 0 -27 -37 -39 -119 -39 -72 0 -171 -22 -203 -45
-57 -39 -75 -121 -38 -168 22 -27 96 -57 142 -57 16 0 50 5 75 11 43 11 46 11
67 -15 18 -23 28 -27 60 -24 37 3 39 5 42 41 3 34 30 106 95 254 19 45 21 55
9 82 -27 65 -202 111 -294 77z m114 -226 c12 -8 12 -12 0 -36 -32 -59 -65 -84
-112 -84 -56 0 -90 23 -86 58 3 31 36 50 106 62 66 11 75 11 92 0z"/>
<path d="M11240 1050 c-69 -10 -146 -19 -172 -19 -55 -1 -55 -3 -31 -82 9 -30
42 -155 73 -279 l57 -225 64 4 c35 2 65 4 67 6 2 2 -7 48 -19 103 -12 54 -19
106 -16 115 5 14 20 17 72 17 l65 0 98 -100 97 -100 70 0 c39 0 75 4 82 8 7 4
-30 49 -103 125 -63 65 -114 119 -114 121 0 2 18 21 39 43 50 49 60 96 36 159
-41 107 -144 136 -365 104z m214 -115 c69 -64 5 -120 -162 -140 l-62 -7 -15
36 c-9 20 -18 56 -21 81 l-7 44 39 4 c22 2 75 4 120 5 73 2 84 0 108 -23z"/>
<path d="M8503 998 c-7 -24 -9 -46 -5 -50 4 -3 41 -9 83 -13 l76 -7 7 47 c4
26 6 48 4 50 -2 1 -37 5 -78 9 l-76 6 -11 -42z"/>
<path d="M8211 991 c-5 -9 -12 -31 -16 -48 -3 -18 -10 -34 -13 -34 -4 -1 -20
-3 -36 -5 -48 -5 -56 -12 -56 -44 0 -23 4 -30 19 -30 32 0 51 -11 51 -29 0
-10 -11 -51 -26 -92 -43 -127 -54 -177 -44 -205 13 -32 65 -54 129 -54 43 0
53 4 67 25 20 31 12 55 -19 55 -29 0 -47 18 -46 44 0 12 15 68 33 126 l32 105
54 5 c49 5 54 7 61 34 11 39 5 46 -37 46 -44 0 -53 21 -29 66 10 19 16 36 14
38 -2 2 -32 6 -67 8 -50 3 -65 1 -71 -11z"/>
<path d="M11895 1001 c-96 -25 -165 -104 -165 -190 0 -56 38 -137 84 -179 63
-58 101 -75 183 -80 83 -5 138 10 208 58 48 33 56 57 28 85 -23 23 -99 12
-133 -20 -48 -46 -127 -45 -174 2 -21 21 -36 63 -23 63 18 0 321 51 325 54 21
22 -85 154 -152 188 -43 22 -134 32 -181 19z m134 -109 c14 -10 27 -28 29 -40
3 -18 -3 -21 -55 -27 -32 -3 -75 -8 -95 -11 -43 -6 -55 8 -44 51 14 54 108 69
165 27z"/>
<path d="M10315 983 c-59 -12 -95 -37 -115 -79 -25 -51 -18 -94 26 -151 l27
-35 -45 -39 c-109 -93 -100 -240 17 -299 90 -45 231 -26 328 44 l27 20 28 -21
c15 -11 41 -27 58 -36 29 -15 33 -15 65 2 47 25 47 43 0 75 -75 52 -77 57 -47
120 34 72 33 84 -8 91 -53 10 -80 3 -94 -27 -18 -38 -35 -35 -87 13 l-45 41
55 52 c51 48 55 55 55 99 0 65 -41 111 -111 126 -50 11 -97 12 -134 4z m109
-94 c14 -11 26 -29 26 -39 0 -22 -45 -60 -72 -60 -25 0 -68 44 -68 69 0 49 67
67 114 30z m-8 -311 c35 -34 63 -66 61 -72 -7 -20 -70 -56 -99 -56 -99 0 -156
107 -87 164 17 14 37 26 46 26 8 0 44 -28 79 -62z"/>
<path d="M7760 971 c-211 -65 -295 -268 -159 -385 96 -82 253 -78 364 11 19
15 35 33 35 40 0 6 -25 17 -55 24 -53 12 -56 11 -81 -12 -31 -29 -116 -33
-157 -6 -67 44 -29 185 64 232 44 23 112 19 136 -7 11 -13 23 -31 26 -41 6
-15 16 -18 59 -15 53 3 53 3 56 39 6 75 -81 130 -202 128 -34 0 -72 -4 -86 -8z"/>
<path d="M8436 650 c-27 -110 -48 -202 -45 -204 6 -7 118 -10 124 -4 11 10 95
382 91 395 -4 9 -25 13 -63 13 l-58 0 -49 -200z"/>
<path d="M8735 818 c-9 -23 -85 -392 -81 -395 1 -2 31 -4 66 -5 l63 -3 23 117
c26 134 34 152 77 178 71 44 153 13 143 -53 -3 -18 -15 -83 -26 -146 -11 -62
-17 -117 -14 -122 3 -5 33 -9 68 -9 l63 0 17 98 c10 53 20 135 23 182 5 78 3
88 -18 114 -55 69 -166 75 -249 13 l-25 -19 -5 29 c-5 26 -8 28 -63 31 -40 2
-59 -1 -62 -10z"/>
<path d="M9400 780 c-56 -27 -77 -46 -101 -92 -73 -144 -23 -278 116 -309 54
-12 80 -9 163 16 20 7 22 4 22 -30 0 -27 -7 -44 -29 -66 -39 -39 -109 -41
-162 -5 -35 24 -98 46 -131 46 -25 0 -24 -60 2 -92 26 -34 106 -67 179 -74 45
-5 75 -2 127 15 76 23 92 34 117 71 20 31 35 176 39 370 l3 145 -54 3 c-30 2
-58 -1 -64 -7 -7 -7 -20 -5 -40 6 -50 26 -135 27 -187 3z m189 -99 c22 -17 24
-26 23 -81 -2 -71 -23 -114 -64 -131 -66 -27 -148 26 -148 97 0 46 22 98 51
118 32 22 107 21 138 -3z"/>
</g>
</svg>
